Model2392_S4_states																							
version=1																							
nRows=58																							
nColumns=24																							
inDegrees=yes																							
																							
"Units are S.I. units (second, meters, Newtons, ...)"																							
Angles are in degrees.																							
																							
endheader																							
time	pelvis_tilt	pelvis_list	pelvis_rotation	pelvis_tx	pelvis_ty	pelvis_tz	hip_flexion_r	hip_adduction_r	hip_rotation_r	knee_angle_r	ankle_angle_r	subtalar_angle_r	mtp_angle_r	hip_flexion_l	hip_adduction_l	hip_rotation_l	knee_angle_l	ankle_angle_l	subtalar_angle_l	mtp_angle_l	lumbar_extension	lumbar_bending	lumbar_rotation
1.58008243	0	0	0	0	0.95	0	27.18313751	0	0	-9.56273184	5.78634376	0	0	-17.54654755	0	0	-11.50826393	4.2840915	0	0	0	0	0
1.58041408	0	0	0	0	0.95	0	27.19704456	0	0	-9.57771692	5.77199273	0	0	-17.5527575	0	0	-11.52654147	4.30828727	0	0	0	0	0
1.58179852	0	0	0	0	0.95	0	27.25597403	0	0	-9.64694314	5.71962733	0	0	-17.5783739	0	0	-11.60233109	4.40246213	0	0	0	0	0
1.58302451	0	0	0	0	0.95	0	27.30939842	0	0	-9.71743909	5.6831253	0	0	-17.60092159	0	0	-11.66731923	4.45678334	0	0	0	0	0
1.58412174	0	0	0	0	0.95	0	27.35817771	0	0	-9.78783085	5.656604	0	0	-17.62119069	0	0	-11.72271185	4.46715245	0	0	0	0	0
1.58521897	0	0	0	0	0.95	0	27.40777485	0	0	-9.86487765	5.63326013	0	0	-17.64160508	0	0	-11.77510487	4.43578243	0	0	0	0	0
1.58631621	0	0	0	0	0.95	0	27.4580503	0	0	-9.9482051	5.61008531	0	0	-17.6621118	0	0	-11.82469913	4.36515785	0	0	0	0	0
1.58741344	0	0	0	0	0.95	0	27.50883863	0	0	-10.03736972	5.58419662	0	0	-17.68256448	0	0	-11.87218366	4.26458362	0	0	0	0	0
1.58851068	0	0	0	0	0.95	0	27.55996432	0	0	-10.13191302	5.55333983	0	0	-17.70275779	0	0	-11.9185706	4.1478882	0	0	0	0	0
1.58993499	0	0	0	0	0.95	0	27.62653908	0	0	-10.26192424	5.50384082	0	0	-17.72822695	0	0	-11.97895894	3.9972286	0	0	0	0	0
1.58998788	0	0	0	0	0.95	0	27.62901098	0	0	-10.26689894	5.50178798	0	0	-17.72915156	0	0	-11.98123044	3.9920042	0	0	0	0	0
1.59000461	0	0	0	0	0.95	0	27.62979328	0	0	-10.2684755	5.50113511	0	0	-17.72944384	0	0	-11.98194998	3.99035885	0	0	0	0	0
1.59002135	0	0	0	0	0.95	0	27.63057556	0	0	-10.27005307	5.50048073	0	0	-17.72973595	0	0	-11.98266983	3.98871747	0	0	0	0	0
1.59010504	0	0	0	0	0.95	0	27.6344866	0	0	-10.27795596	5.4971862	0	0	-17.73119397	0	0	-11.9862737	3.98057145	0	0	0	0	0
1.5905235	0	0	0	0	0.95	0	27.6540306	0	0	-10.31784042	5.48015684	0	0	-17.73841849	0	0	-12.00441879	3.94149413	0	0	0	0	0
1.59186286	0	0	0	0	0.95	0	27.71635763	0	0	-10.44939728	5.41990933	0	0	-17.76075535	0	0	-12.06418593	3.83884005	0	0	0	0	0
1.59320222	0	0	0	0	0.95	0	27.77811308	0	0	-10.58632141	5.35244623	0	0	-17.78183793	0	0	-12.12682504	3.77449692	0	0	0	0	0
1.59454158	0	0	0	0	0.95	0	27.83911546	0	0	-10.72808357	5.27988637	0	0	-17.80173134	0	0	-12.19199808	3.74399459	0	0	0	0	0
1.59588094	0	0	0	0	0.95	0	27.89932904	0	0	-10.87445249	5.20403896	0	0	-17.82062486	0	0	-12.25870127	3.73389	0	0	0	0	0
1.5971954	0	0	0	0	0.95	0	27.95774897	0	0	-11.02262236	5.1274754	0	0	-17.83843172	0	0	-12.32438114	3.72667788	0	0	0	0	0
1.59850987	0	0	0	0	0.95	0	28.01569389	0	0	-11.17553516	5.04901127	0	0	-17.85573029	0	0	-12.38907398	3.70583205	0	0	0	0	0
1.59982433	0	0	0	0	0.95	0	28.07343219	0	0	-11.33362824	4.96802264	0	0	-17.87267591	0	0	-12.45191113	3.65949988	0	0	0	0	0
1.59994452	0	0	0	0	0.95	0	28.07871187	0	0	-11.34836042	4.96045165	0	0	-17.87421067	0	0	-12.45754621	3.65375284	0	0	0	0	0
1.59999939	0	0	0	0	0.95	0	28.0811231	0	0	-11.35510362	4.95698377	0	0	-17.87491071	0	0	-12.46011296	3.65104123	0	0	0	0	0
1.60001719	0	0	0	0	0.95	0	28.08190525	0	0	-11.35729299	4.95585747	0	0	-17.87513767	0	0	-12.46094464	3.65014993	0	0	0	0	0
1.60003499	0	0	0	0	0.95	0	28.08268743	0	0	-11.35948343	4.95473044	0	0	-17.87536457	0	0	-12.46177589	3.64925285	0	0	0	0	0
1.600124	0	0	0	0	0.95	0	28.08659881	0	0	-11.37045175	4.94908421	0	0	-17.87649832	0	0	-12.46592583	3.64468083	0	0	0	0	0
1.600569	0	0	0	0	0.95	0	28.10617095	0	0	-11.42570221	4.92056524	0	0	-17.88214775	0	0	-12.4865176	3.61965894	0	0	0	0	0
1.60181819	0	0	0	0	0.95	0	28.16131967	0	0	-11.5845742	4.83786234	0	0	-17.8978179	0	0	-12.54298057	3.53093475	0	0	0	0	0
1.60306737	0	0	0	0	0.95	0	28.21688236	0	0	-11.74922125	4.75183662	0	0	-17.91313041	0	0	-12.59781078	3.41904188	0	0	0	0	0
1.60431656	0	0	0	0	0.95	0	28.27290102	0	0	-11.9197199	4.66423735	0	0	-17.92793977	0	0	-12.65166506	3.29181676	0	0	0	0	0
1.60582153	0	0	0	0	0.95	0	28.34091615	0	0	-12.13271472	4.5599954	0	0	-17.94488481	0	0	-12.71630165	3.13073905	0	0	0	0	0
1.60765659	0	0	0	0	0.95	0	28.42429021	0	0	-12.40283089	4.4403692	0	0	-17.96389136	0	0	-12.79627392	2.94078583	0	0	0	0	0
1.60900518	0	0	0	0	0.95	0	28.4855196	0	0	-12.60773524	4.36063947	0	0	-17.97654135	0	0	-12.85657588	2.8139703	0	0	0	0	0
1.60953284	0	0	0	0	0.95	0	28.5093909	0	0	-12.68918063	4.3316468	0	0	-17.98117121	0	0	-12.88058914	2.76800561	0	0	0	0	0
1.60977319	0	0	0	0	0.95	0	28.5202399	0	0	-12.72649375	4.31886606	0	0	-17.98321989	0	0	-12.89160797	2.7477649	0	0	0	0	0
1.60998611	0	0	0	0	0.95	0	28.52983527	0	0	-12.75965273	4.30776848	0	0	-17.98500311	0	0	-12.90141081	2.73019575	0	0	0	0	0
1.61001186	0	0	0	0	0.95	0	28.53099457	0	0	-12.76366903	4.30644078	0	0	-17.98521674	0	0	-12.90259888	2.72809397	0	0	0	0	0
1.6100376	0	0	0	0	0.95	0	28.53215364	0	0	-12.76768673	4.30511616	0	0	-17.98542993	0	0	-12.90378753	2.72599707	0	0	0	0	0
1.61016634	0	0	0	0	0.95	0	28.53794545	0	0	-12.78779578	4.29853921	0	0	-17.98648939	0	0	-12.90973934	2.71558549	0	0	0	0	0
1.61081002	0	0	0	0	0.95	0	28.56680796	0	0	-12.88883148	4.26679067	0	0	-17.99162446	0	0	-12.93970922	2.6652954	0	0	0	0	0
1.6124028	0	0	0	0	0.95	0	28.63740064	0	0	-13.14192194	4.19534703	0	0	-18.00318376	0	0	-13.01525101	2.55151805	0	0	0	0	0
1.6137347	0	0	0	0	0.95	0	28.69539145	0	0	-13.35638066	4.14049627	0	0	-18.01163089	0	0	-13.07962329	2.46323692	0	0	0	0	0
1.61467159	0	0	0	0	0.95	0	28.735584	0	0	-13.5085435	4.10235257	0	0	-18.01693096	0	0	-13.12534345	2.40146377	0	0	0	0	0
1.61560848	0	0	0	0	0.95	0	28.77528986	0	0	-13.66169554	4.0629545	0	0	-18.02171469	0	0	-13.17128023	2.33758574	0	0	0	0	0
1.61675389	0	0	0	0	0.95	0	28.82320096	0	0	-13.85020651	4.01120596	0	0	-18.0268727	0	0	-13.227577	2.25395946	0	0	0	0	0
1.61763289	0	0	0	0	0.95	0	28.85953201	0	0	-13.99580946	3.96770856	0	0	-18.03031859	0	0	-13.27079435	2.18410194	0	0	0	0	0
1.61851189	0	0	0	0	0.95	0	28.89551709	0	0	-14.14223048	3.92024219	0	0	-18.03331695	0	0	-13.31397833	2.10838924	0	0	0	0	0
1.61939089	0	0	0	0	0.95	0	28.93119271	0	0	-14.28949817	3.86844777	0	0	-18.03586149	0	0	-13.35711262	2.02636229	0	0	0	0	0
1.61984311	0	0	0	0	0.95	0	28.94943751	0	0	-14.36560191	3.84006071	0	0	-18.03699084	0	0	-13.37928513	1.98164848	0	0	0	0	0
1.6199895	0	0	0	0	0.95	0	28.95532907	0	0	-14.39028907	3.83061694	0	0	-18.03732993	0	0	-13.3864606	1.96680895	0	0	0	0	0
1.62000872	0	0	0	0	0.95	0	28.95610197	0	0	-14.39353176	3.82936798	0	0	-18.03737347	0	0	-13.38740249	1.9648477	0	0	0	0	0
1.62002793	0	0	0	0	0.95	0	28.95687476	0	0	-14.39677489	3.82811689	0	0	-18.03741679	0	0	-13.38834437	1.9628834	0	0	0	0	0
1.62012402	0	0	0	0	0.95	0	28.96073694	0	0	-14.41299707	3.82182942	0	0	-18.03763002	0	0	-13.39305355	1.95301621	0	0	0	0	0
1.62060446	0	0	0	0	0.95	0	28.98000518	0	0	-14.49427288	3.78960032	0	0	-18.03861112	0	0	-13.41659522	1.90254937	0	0	0	0	0
1.62178894	0	0	0	0	0.95	0	29.02722605	0	0	-14.69585096	3.70492041	0	0	-18.04041115	0	0	-13.47464313	1.7704325	0	0	0	0	0
1.62320579	0	0	0	0	0.95	0	29.08321379	0	0	-14.93927791	3.59639482	0	0	-18.04135772	0	0	-13.54426308	1.59971306	0	0	0	0	0
1.62402555	0	0	0	0	0.95	0	29.11535723	0	0	-15.08127869	3.53195713	0	0	-18.04127615	0	0	-13.58474492	1.49580675	0	0	0	0	0
